<svg width="240" height="220" viewBox="0 0 240 220" fill="none" xmlns="http://www.w3.org/2000/svg">

  <!-- Base -->
  <rect x="20" y="80" width="200" height="120" rx="8" fill="#FFFFFF" stroke="#0F172A" stroke-width="3"/>

  <!-- Awning -->
  <path d="M20 80H220L200 120H40L20 80Z" fill="#FF5A5F"/>
  <path d="M40 80H60L55 120H35L40 80Z" fill="#FFFFFF"/>
  <path d="M80 80H100L95 120H75L80 80Z" fill="#FFFFFF"/>
  <path d="M120 80H140L135 120H115L120 80Z" fill="#FFFFFF"/>
  <path d="M160 80H180L175 120H155L160 80Z" fill="#FFFFFF"/>

  <!-- Sign -->
  <rect x="70" y="20" width="100" height="40" rx="8" fill="#FFFFFF" stroke="#0F172A" stroke-width="3"/>
  <text x="120" y="45" text-anchor="middle" font-size="16" font-family="Arial" fill="#0F172A">STORE</text>

  <!-- Window -->
  <rect x="40" y="120" width="80" height="50" rx="6" fill="#93C5FD" stroke="#0F172A" stroke-width="3"/>
  <line x1="50" y1="130" x2="90" y2="160" stroke="#FFFFFF" stroke-width="3"/>

  <!-- Door -->
  <rect x="140" y="110" width="50" height="70" rx="6" fill="#93C5FD" stroke="#0F172A" stroke-width="3"/>
  <circle cx="180" cy="145" r="3" fill="#0F172A"/>

  <!-- Bushes -->
  <circle cx="30" cy="190" r="12" fill="#22C55E"/>
  <circle cx="210" cy="190" r="12" fill="#22C55E"/>

</svg>